<?xml version="1.0" encoding="utf-8"?>
<!-- Generator: Adobe Illustrator 15.0.0, SVG Export Plug-In . SVG Version: 6.00 Build 0)  -->
<!DOCTYPE svg PUBLIC "-//W3C//DTD SVG 1.1//EN" "http://www.w3.org/Graphics/SVG/1.1/DTD/svg11.dtd">
<svg version="1.1" id="Layer_1" xmlns="http://www.w3.org/2000/svg" xmlns:xlink="http://www.w3.org/1999/xlink" x="0px" y="0px"
	 width="1511.109px" height="1017px" viewBox="0 0 1511.109 1017" enable-background="new 0 0 1511.109 1017" xml:space="preserve">
<path opacity="0.2" fill="#DEF2F0" d="M646.378,0c-11.61,25.372-23.003,50.84-34.197,76.394c-6-2.567-12.001-5.132-18.007-7.684
	c-31.004-13.166-62.096-26.116-93.235-38.948C506.627,19.833,512.332,9.914,518.045,0h-6.658
	c-5.297,9.173-10.585,18.351-15.86,27.536C473.103,18.307,450.653,9.143,428.195,0H412.64c26.68,10.821,53.346,21.674,79.975,32.611
	c-28.223,49.207-56.131,98.59-83.928,148.03c-30.845-17.604-61.745-35.108-92.677-52.555C343.54,85.475,370.894,42.753,398.193,0
	h-6.801c-26.755,41.786-53.547,83.547-80.497,125.201c-34.895-19.672-69.826-39.276-104.758-58.873
	c11.301-15.261,22.588-30.533,33.849-45.823c5.019-6.831,10.027-13.668,15.04-20.504h-7.406c-4.154,5.65-8.304,11.305-12.464,16.951
	c-11.393,15.499-22.812,30.977-34.248,46.443c-10.291-5.773-20.581-11.546-30.871-17.32C142.64,30.734,115.251,15.38,87.876,0
	H75.774c30.43,17.131,60.879,34.222,91.332,51.306c10.074,5.644,20.148,11.287,30.222,16.93
	c-21.999,29.734-44.092,59.399-66.308,88.969C87.465,128.664,43.771,100.341,0,72.139v6.953
	c42.58,27.477,85.085,55.065,127.454,82.857c-26.199,34.839-52.575,69.543-79.188,104.063C32.2,253.947,16.106,241.92,0,229.91
	v7.356c14.913,11.111,29.812,22.238,44.69,33.395c-0.536,0.694-1.068,1.392-1.604,2.085C28.803,291.253,14.442,309.701,0,328.083
	v8.859c15.959-20.163,31.816-40.405,47.58-60.719c0.553-0.714,1.102-1.431,1.655-2.145c36.345,27.274,72.576,54.697,108.659,82.313
	C106.772,431.453,54.39,505.651,0,578.352v9.56c56.121-74.595,110.038-150.808,162.624-227.91
	c13.256,10.155,26.492,20.336,39.706,30.546c20.485,15.821,40.916,31.714,61.284,47.688c-17.308,30.292-34.727,60.519-52.347,90.627
	c-57.245,97.871-116.578,194.575-180.862,287.95C20.409,831.312,10.267,845.709,0,860.016v7.611
	c11.585-15.932,23.002-31.983,34.253-48.148c32.423-46.594,63.514-94.098,93.679-142.166c30.176-48.064,59.469-96.67,88.235-145.576
	c17.534-29.856,34.856-59.833,52.062-89.873c48.68,38.228,96.98,76.937,144.736,116.301c-0.679,1.611-1.347,3.227-2.028,4.837
	c-40.403,95.717-83.078,190.575-132.43,281.975c-24.702,45.666-51.204,90.373-80.085,133.51
	c-8.702,12.995-17.633,25.84-26.801,38.514h4.502c8.725-11.96,17.246-24.069,25.559-36.315
	c29.238-43.078,55.954-87.821,80.938-133.47c24.981-45.658,48.185-92.264,70.223-139.387c22.047-47.124,42.977-94.752,63.326-142.61
	c0.463-1.093,0.918-2.188,1.38-3.28c32.371,26.73,64.488,53.766,96.3,81.16c50.617,43.647,100.373,88.302,148.796,134.363
	c48.399,46.074,95.453,93.604,139.974,143.437c22.264,24.909,43.873,50.408,64.508,76.682c5.043,6.426,10.027,12.899,14.947,19.421
	h2.614c-5.188-6.992-10.446-13.93-15.774-20.813c-20.492-26.458-41.966-52.145-64.095-77.241
	c-44.324-50.15-91.228-97.957-139.456-144.326c-48.255-46.356-97.953-91.182-148.45-135.062
	c-32.108-27.891-64.567-55.373-97.298-82.524c21.458-50.773,42.311-101.785,63.025-152.845
	c52.532,37.667,104.568,76.017,155.946,115.243c132.121,100.878,260.019,207.591,378.82,323.907
	c56.588,55.475,110.972,113.229,162.228,173.662h5.19c-51.746-61.67-106.837-120.484-164.136-177.001
	c-59.272-58.45-120.959-114.417-184.295-168.408c-63.334-54.003-128.294-106.071-194.356-156.673
	c-51.763-39.605-104.2-78.299-157.141-116.292c16.501-40.694,32.938-81.41,49.551-122.047c1.829-4.491,3.662-8.98,5.496-13.47
	c122.091,71.495,242.743,145.576,359.23,225.858c58.501,40.368,115.855,82.414,171.46,126.681
	c55.592,44.268,109.392,90.834,160.376,140.352c51.008,49.471,99.186,101.943,143.074,157.873
	c21.942,27.958,42.798,56.778,62.377,86.45c3.653,5.526,7.246,11.091,10.809,16.677h0.87c-3.597-5.752-7.228-11.482-10.921-17.173
	c-19.392-29.827-40.094-58.801-61.881-86.933c-43.584-56.27-91.499-109.127-142.273-159
	c-50.816-49.854-104.506-96.723-159.974-141.317c-55.485-44.591-112.824-86.831-171.251-127.458
	c-58.436-40.625-118.011-79.585-178.289-117.394c-59.906-37.59-120.486-74.085-181.438-109.928
	c23.812-58.235,48.044-116.296,73.164-173.96c112.103,47.788,223.097,98.363,330.277,156.311
	c57.262,31.012,113.328,64.271,167.413,100.533c54.072,36.257,106.105,75.632,154.896,118.76
	c48.814,43.075,94.338,89.964,135.224,140.684c40.886,50.705,77.138,105.178,108.024,162.584
	c-15.178-28.843-31.695-56.99-49.51-84.301c-17.839-27.295-36.975-53.746-57.273-79.277
	c-40.595-51.076-85.883-98.377-134.511-141.888c-48.666-43.496-100.643-83.208-154.652-119.822
	c-54.026-36.619-110.13-70.093-167.374-101.386c-57.257-31.292-115.698-60.357-174.786-87.975
	c-51.423-24.042-103.326-47.021-155.483-69.385C629.014,52.356,640.711,26.128,652.63,0H646.378z M312.798,133.043
	c31.052,17.489,62.071,35.035,93.033,52.676c-8.855,15.754-17.704,31.512-26.547,47.272c-12.278,21.919-24.551,43.84-36.838,65.752
	c-31.71-21.763-63.55-43.333-95.484-64.752C269.052,200.435,290.988,166.778,312.798,133.043z M202.555,71.163
	c35.058,19.638,70.11,39.283,105.124,58.995c-21.752,33.596-43.625,67.111-65.652,100.522c-2.339-1.567-4.674-3.14-7.014-4.706
	c-32.934-21.998-65.973-43.833-99.089-65.55C158.252,130.757,180.45,100.994,202.555,71.163z M161.135,351.637
	c-35.967-27.585-72.087-54.969-108.32-82.199c26.746-34.581,53.234-69.357,79.537-104.271c33.2,21.795,66.32,43.71,99.329,65.792
	c2.352,1.571,4.699,3.15,7.049,4.724c-12.071,18.288-24.175,36.554-36.36,54.766C188.706,310.899,174.966,331.299,161.135,351.637z
	 M266.381,433.39c-20.131-15.856-40.326-31.631-60.575-47.335c-13.291-10.296-26.605-20.562-39.94-30.8
	c13.916-20.435,27.741-40.93,41.488-61.474c12.169-18.222,24.258-36.495,36.314-54.788c32.066,21.481,64.032,43.115,95.866,64.942
	C315.284,347.167,290.949,390.348,266.381,433.39z M415.029,553.241c-17.243-14.276-34.555-28.469-51.938-42.572
	c-30.52-24.771-61.234-49.298-92.096-73.636c24.679-43.134,49.108-86.406,73.449-129.723
	c44.719,30.703,89.171,61.791,133.274,93.358C457.089,451.646,436.338,502.564,415.029,553.241z M528.895,274.314
	c-16.401,40.229-32.636,80.521-48.923,120.786c-43.889-31.441-88.122-62.401-132.615-92.979
	c12.394-22.063,24.773-44.133,37.158-66.199c8.82-15.757,17.649-31.509,26.483-47.258c41.367,23.588,82.63,47.352,123.729,71.394
	C532.782,264.811,530.836,269.562,528.895,274.314z M536.905,254.746c-40.877-23.972-81.916-47.656-123.058-71.156
	c27.884-49.69,55.886-99.309,84.186-148.754c31.367,12.899,62.686,25.909,93.925,39.105c5.993,2.532,11.98,5.077,17.968,7.623
	C584.842,138.981,560.674,196.791,536.905,254.746z"/>
</svg>
