<?xml version="1.0" encoding="utf-8"?>
<!-- Generator: Adobe Illustrator 15.0.0, SVG Export Plug-In . SVG Version: 6.00 Build 0)  -->
<!DOCTYPE svg PUBLIC "-//W3C//DTD SVG 1.1//EN" "http://www.w3.org/Graphics/SVG/1.1/DTD/svg11.dtd">
<svg version="1.1" id="Layer_1" xmlns="http://www.w3.org/2000/svg" xmlns:xlink="http://www.w3.org/1999/xlink" x="0px" y="0px"
	 width="42.535px" height="67px" viewBox="0 0 42.535 67" enable-background="new 0 0 42.535 67" xml:space="preserve">
<g>
	<path fill="none" stroke="#FFFFFF" stroke-width="2" stroke-miterlimit="10" d="M2.449,7.593C2.449,3.47,5.792,1,9.915,1h24.054
		c4.123,0,7.465,2.906,7.465,7.029"/>
	<path fill="none" stroke="#FFFFFF" stroke-width="2" stroke-miterlimit="10" d="M41.322,59.135c0,4.123-3.136,6.865-7.258,6.865
		H9.01C4.887,66,1,62.615,1,58.492V25h40.529L41.322,59.135z"/>
	<line fill="none" stroke="#FFFFFF" stroke-width="4" stroke-miterlimit="10" x1="22" y1="37" x2="22" y2="49"/>
	<line fill="none" stroke="#FFFFFF" stroke-width="4" stroke-miterlimit="10" x1="28" y1="43" x2="16" y2="43"/>
	<path fill="none" stroke="#FFFFFF" stroke-width="2" stroke-miterlimit="10" d="M14.665,24.375c0,0,1.454-4.7,5.083-4.7
		c0-1.659-2.592-1.589-2.592-6.013c0-4.424,1.487-6.705,5.081-6.705c3.595,0,5.026,3.123,5.026,6.717
		c0,3.595-2.123,3.928-2.123,5.794c2.695,0,5.08,4.907,5.08,4.907"/>
</g>
</svg>
