<?xml version="1.0" encoding="utf-8"?>
<!-- Generator: Adobe Illustrator 15.0.0, SVG Export Plug-In . SVG Version: 6.00 Build 0)  -->
<!DOCTYPE svg PUBLIC "-//W3C//DTD SVG 1.1//EN" "http://www.w3.org/Graphics/SVG/1.1/DTD/svg11.dtd">
<svg version="1.1" id="Layer_1" xmlns="http://www.w3.org/2000/svg" xmlns:xlink="http://www.w3.org/1999/xlink" x="0px" y="0px"
	 width="60.086px" height="60px" viewBox="0 0 60.086 60" enable-background="new 0 0 60.086 60" xml:space="preserve">
<g id="Facebook" transform="translate(79.000000, 0.000000)">
	<path fill="#59BDB2" d="M-79,30c0-16.568,13.451-30,30.043-30s30.043,13.432,30.043,30c0,16.568-13.451,30-30.043,30
		S-79,46.568-79,30z"/>
	<path id="reflec_28_" fill="#009996" d="M-18.914,30c0,16.568-13.451,30-30.043,30c-6.154,0-11.875-1.848-16.639-5.018
		l34.424-49.164C-23.738,11.281-18.914,20.078-18.914,30z"/>
	<path id="Path_18_" fill="#FFFFFF" d="M-46.445,46.32V29.998h4.506l0.599-5.625h-5.104l0.008-2.814
		c0-1.467,0.141-2.253,2.246-2.253h2.816V13.68h-4.506c-5.412,0-7.317,2.729-7.317,7.317v3.377h-3.374v5.624h3.374V46.32H-46.445z"
		/>
</g>
</svg>
