<?xml version="1.0" encoding="utf-8"?>
<!-- Generator: Adobe Illustrator 15.0.0, SVG Export Plug-In . SVG Version: 6.00 Build 0)  -->
<!DOCTYPE svg PUBLIC "-//W3C//DTD SVG 1.1//EN" "http://www.w3.org/Graphics/SVG/1.1/DTD/svg11.dtd">
<svg version="1.1" id="Layer_1" xmlns="http://www.w3.org/2000/svg" xmlns:xlink="http://www.w3.org/1999/xlink" x="0px" y="0px"
	 width="254.816px" height="81.814px" viewBox="0 0 254.816 81.814" enable-background="new 0 0 254.816 81.814"
	 xml:space="preserve">
<g>
	<g>
		<path fill="#FFFFFF" d="M0,17.389h7.595v6.127c1.558-2.099,3.259-3.724,5.105-4.875c2.623-1.726,5.71-2.589,9.258-2.589
			c5.25,0,9.706,2.006,13.369,6.019s5.495,9.746,5.495,17.196c0,10.068-2.643,17.261-7.928,21.576
			c-3.351,2.732-7.249,4.098-11.697,4.098c-3.495,0-6.425-0.762-8.793-2.285c-1.386-0.863-2.932-2.347-4.636-4.446v23.604H0V17.389z
			 M29.223,53.615c2.41-3.035,3.615-7.574,3.615-13.615c0-3.683-0.534-6.845-1.602-9.493c-2.021-5.092-5.716-7.637-11.084-7.637
			c-5.398,0-9.092,2.69-11.084,8.068c-1.068,2.876-1.602,6.531-1.602,10.96c0,3.567,0.534,6.604,1.602,9.106
			c2.02,4.775,5.715,7.163,11.084,7.163C23.789,58.168,26.812,56.651,29.223,53.615z"/>
		<path fill="#FFFFFF" d="M50.365,0h7.768v63.388h-7.768V0z"/>
		<path fill="#FFFFFF" d="M98.33,18.446c3.059,1.539,5.389,3.532,6.99,5.978c1.543,2.33,2.572,5.047,3.087,8.154
			c0.458,2.13,0.687,5.523,0.687,10.184H75.479c0.143,4.702,1.242,8.477,3.296,11.316c2.056,2.842,5.239,4.262,9.549,4.262
			c4.023,0,7.235-1.344,9.633-4.032c1.342-1.559,2.292-3.366,2.852-5.419h7.638c-0.202,1.699-0.871,3.59-2.006,5.676
			c-1.137,2.087-2.405,3.791-3.804,5.112c-2.34,2.303-5.24,3.854-8.693,4.661c-1.857,0.46-3.955,0.689-6.295,0.689
			c-5.718,0-10.564-2.092-14.538-6.277c-3.974-4.186-5.96-10.047-5.96-17.584c0-7.422,2.001-13.448,6.004-18.081
			c4.002-4.632,9.235-6.946,15.696-6.946C92.111,16.139,95.27,16.907,98.33,18.446z M101.111,36.592
			c-0.314-3.366-1.042-6.057-2.183-8.07c-2.112-3.739-5.635-5.61-10.569-5.61c-3.536,0-6.503,1.289-8.899,3.862
			c-2.396,2.575-3.666,5.848-3.808,9.818H101.111z"/>
		<path fill="#FFFFFF" d="M171.594,17.174v30.679c0,2.359,0.364,4.287,1.093,5.782c1.345,2.762,3.853,4.143,7.523,4.143
			c5.266,0,8.853-2.417,10.758-7.249c1.035-2.59,1.555-6.141,1.555-10.657V17.174h7.767v46.213h-7.335l0.086-6.817
			c-0.988,1.754-2.218,3.237-3.685,4.445c-2.908,2.416-6.437,3.625-10.585,3.625c-6.465,0-10.869-2.202-13.211-6.604
			c-1.27-2.357-1.905-5.508-1.905-9.449V17.174H171.594z"/>
		<path fill="#FFFFFF" d="M217.594,48.889c0.233,2.59,0.894,4.574,1.98,5.955c1.997,2.503,5.462,3.756,10.395,3.756
			c2.936,0,5.52-0.627,7.751-1.878c2.232-1.251,3.348-3.185,3.348-5.804c0-1.984-0.892-3.496-2.676-4.531
			c-1.14-0.632-3.392-1.365-6.753-2.199l-6.271-1.555c-4.005-0.978-6.959-2.07-8.859-3.279c-3.391-2.1-5.086-5.006-5.086-8.716
			c0-4.373,1.596-7.912,4.788-10.616s7.485-4.056,12.879-4.056c7.055,0,12.143,2.042,15.261,6.128
			c1.954,2.589,2.902,5.379,2.845,8.371h-7.336c-0.147-1.746-0.78-3.333-1.9-4.765c-1.825-2.03-4.991-3.047-9.497-3.047
			c-3.004,0-5.277,0.56-6.824,1.678c-1.546,1.118-2.318,2.594-2.318,4.429c0,2.006,1.016,3.612,3.048,4.814
			c1.172,0.717,2.9,1.35,5.188,1.896l5.231,1.25c5.686,1.354,9.496,2.663,11.432,3.929c3.021,1.984,4.531,5.106,4.531,9.363
			c0,4.114-1.582,7.668-4.74,10.659c-3.161,2.991-7.975,4.487-14.439,4.487c-6.961,0-11.891-1.561-14.789-4.682
			c-2.897-3.121-4.448-6.984-4.652-11.588H217.594z"/>
		<g>
			<polygon fill="#FFFFFF" points="135.037,46.041 123.904,63.388 114.065,63.388 130.333,39.699 135.555,33.441 146.3,17.174 
				155.749,17.389 140.172,39.699 			"/>
			<polygon fill="#004DA8" points="156.44,63.388 146.516,63.388 114.886,17.174 124.939,17.174 			"/>
		</g>
	</g>
	<g>
		<path fill="#FFFFFF" d="M253.372,16.615c-0.938,0.906-2.062,1.36-3.374,1.36c-1.355,0-2.498-0.464-3.427-1.393
			c-0.928-0.928-1.392-2.07-1.392-3.426c0-1.409,0.501-2.579,1.503-3.511c0.941-0.872,2.047-1.308,3.315-1.308
			c1.329,0,2.464,0.471,3.406,1.412c0.941,0.941,1.412,2.077,1.412,3.407C254.816,14.525,254.335,15.677,253.372,16.615z
			 M247.167,10.364c-0.768,0.785-1.15,1.715-1.15,2.792c0,1.115,0.39,2.063,1.17,2.844c0.775,0.781,1.713,1.17,2.812,1.17
			c1.094,0,2.028-0.393,2.805-1.177c0.776-0.789,1.164-1.735,1.164-2.837c0-1.072-0.386-2.004-1.157-2.792
			c-0.78-0.802-1.718-1.203-2.812-1.203C248.892,9.162,247.947,9.562,247.167,10.364z M247.886,15.836v-5.341
			c0.332,0,0.827,0.001,1.487,0.002c0.66,0.003,1.028,0.006,1.103,0.011c0.423,0.03,0.772,0.121,1.053,0.274
			c0.475,0.262,0.712,0.687,0.712,1.275c0,0.449-0.126,0.773-0.376,0.973c-0.25,0.199-0.559,0.319-0.925,0.356
			c0.335,0.071,0.589,0.174,0.758,0.31c0.314,0.254,0.472,0.653,0.472,1.198v0.478c0,0.052,0.003,0.104,0.01,0.157
			c0.008,0.052,0.02,0.104,0.039,0.157l0.049,0.15h-1.334c-0.043-0.17-0.073-0.416-0.088-0.738
			c-0.016-0.323-0.045-0.541-0.088-0.654c-0.07-0.187-0.201-0.318-0.394-0.393c-0.104-0.043-0.263-0.072-0.477-0.085l-0.308-0.02
			h-0.294v1.889H247.886z M250.436,11.548c-0.191-0.075-0.462-0.111-0.811-0.111h-0.34v1.55h0.542c0.328,0,0.583-0.066,0.766-0.197
			c0.184-0.13,0.274-0.342,0.274-0.634C250.867,11.864,250.724,11.662,250.436,11.548z"/>
	</g>
</g>
</svg>
