<?xml version="1.0" encoding="utf-8"?>
<!-- Generator: Adobe Illustrator 15.0.0, SVG Export Plug-In . SVG Version: 6.00 Build 0)  -->
<!DOCTYPE svg PUBLIC "-//W3C//DTD SVG 1.1//EN" "http://www.w3.org/Graphics/SVG/1.1/DTD/svg11.dtd">
<svg version="1.1" id="Layer_1" xmlns="http://www.w3.org/2000/svg" xmlns:xlink="http://www.w3.org/1999/xlink" x="0px" y="0px"
	 width="255.01px" height="110.316px" viewBox="0 0 255.01 110.316" enable-background="new 0 0 255.01 110.316"
	 xml:space="preserve">
<g>
	<g>
		<path fill="#59BDB2" d="M0,45.89h7.595v6.128c1.558-2.1,3.259-3.725,5.105-4.875c2.623-1.727,5.71-2.59,9.258-2.59
			c5.25,0,9.706,2.006,13.369,6.02s5.495,9.746,5.495,17.196c0,10.068-2.643,17.261-7.928,21.575
			c-3.351,2.733-7.249,4.099-11.697,4.099c-3.495,0-6.425-0.761-8.793-2.286c-1.386-0.863-2.932-2.346-4.636-4.445v23.605H0V45.89z
			 M29.223,82.115c2.41-3.035,3.615-7.573,3.615-13.614c0-3.683-0.534-6.845-1.602-9.493c-2.021-5.092-5.716-7.637-11.084-7.637
			c-5.398,0-9.092,2.689-11.084,8.068c-1.068,2.877-1.602,6.531-1.602,10.96c0,3.567,0.534,6.604,1.602,9.106
			c2.02,4.775,5.715,7.163,11.084,7.163C23.789,86.669,26.812,85.152,29.223,82.115z"/>
		<path fill="#59BDB2" d="M50.365,28.501h7.768v63.388h-7.768V28.501z"/>
		<path fill="#59BDB2" d="M98.33,46.947c3.059,1.539,5.389,3.532,6.99,5.978c1.543,2.33,2.572,5.048,3.087,8.154
			c0.458,2.13,0.687,5.523,0.687,10.184H75.479c0.143,4.702,1.242,8.476,3.296,11.316c2.056,2.841,5.239,4.263,9.549,4.263
			c4.023,0,7.235-1.345,9.633-4.033c1.342-1.559,2.292-3.365,2.852-5.418h7.638c-0.202,1.697-0.871,3.589-2.006,5.675
			c-1.137,2.087-2.405,3.79-3.804,5.112c-2.34,2.303-5.24,3.855-8.693,4.66c-1.857,0.461-3.955,0.691-6.295,0.691
			c-5.718,0-10.564-2.093-14.538-6.278c-3.974-4.186-5.96-10.046-5.96-17.583c0-7.423,2.001-13.449,6.004-18.082
			c4.002-4.632,9.235-6.946,15.696-6.946C92.111,44.64,95.27,45.408,98.33,46.947z M101.111,65.094
			c-0.314-3.366-1.042-6.057-2.183-8.07c-2.112-3.739-5.635-5.61-10.569-5.61c-3.536,0-6.503,1.289-8.899,3.862
			c-2.396,2.575-3.666,5.848-3.808,9.818H101.111z"/>
		<path fill="#59BDB2" d="M171.594,45.676v30.679c0,2.358,0.363,4.288,1.094,5.782c1.344,2.762,3.852,4.143,7.522,4.143
			c5.266,0,8.853-2.416,10.758-7.25c1.036-2.589,1.555-6.141,1.555-10.656V45.676h7.767v46.213h-7.335l0.086-6.817
			c-0.988,1.755-2.218,3.237-3.685,4.445c-2.908,2.417-6.436,3.625-10.586,3.625c-6.465,0-10.868-2.202-13.21-6.604
			c-1.271-2.357-1.905-5.508-1.905-9.448V45.676H171.594z"/>
		<path fill="#59BDB2" d="M217.594,77.391c0.233,2.588,0.895,4.574,1.98,5.955c1.996,2.502,5.462,3.755,10.395,3.755
			c2.936,0,5.52-0.626,7.751-1.878c2.232-1.252,3.348-3.186,3.348-5.803c0-1.985-0.892-3.497-2.676-4.533
			c-1.14-0.631-3.392-1.364-6.753-2.199l-6.271-1.553c-4.005-0.979-6.959-2.071-8.859-3.279c-3.39-2.101-5.086-5.006-5.086-8.717
			c0-4.373,1.595-7.912,4.788-10.615c3.191-2.705,7.484-4.057,12.879-4.057c7.055,0,12.143,2.043,15.261,6.128
			c1.954,2.589,2.901,5.379,2.845,8.371h-7.336c-0.147-1.745-0.781-3.333-1.9-4.765c-1.825-2.029-4.99-3.047-9.497-3.047
			c-3.003,0-5.277,0.56-6.824,1.678c-1.546,1.117-2.318,2.594-2.318,4.429c0,2.006,1.016,3.612,3.048,4.814
			c1.172,0.717,2.9,1.35,5.188,1.896l5.231,1.25c5.686,1.354,9.496,2.663,11.432,3.93c3.021,1.984,4.53,5.105,4.53,9.361
			c0,4.115-1.581,7.668-4.74,10.66c-3.16,2.991-7.973,4.487-14.438,4.487c-6.962,0-11.893-1.562-14.79-4.683
			s-4.448-6.983-4.652-11.586H217.594z"/>
		<g>
			<polygon fill="#59BDB2" points="135.037,74.542 123.904,91.889 114.065,91.889 130.334,68.2 135.555,61.941 146.3,45.676 
				155.75,45.89 140.172,68.2 			"/>
			<polygon fill="#2A7169" points="156.439,91.889 146.516,91.889 114.886,45.676 124.939,45.676 			"/>
		</g>
	</g>
	<g>
		<path fill="#59BDB2" d="M253.371,45.115c-0.937,0.906-2.061,1.36-3.373,1.36c-1.355,0-2.498-0.464-3.426-1.393
			c-0.929-0.929-1.393-2.069-1.393-3.426c0-1.409,0.501-2.579,1.504-3.511c0.941-0.873,2.046-1.309,3.314-1.309
			c1.329,0,2.465,0.471,3.406,1.412s1.412,2.077,1.412,3.407C254.816,43.026,254.334,44.178,253.371,45.115z M247.167,38.865
			c-0.767,0.785-1.151,1.715-1.151,2.792c0,1.115,0.391,2.063,1.171,2.844c0.776,0.78,1.713,1.171,2.812,1.171
			c1.094,0,2.028-0.393,2.805-1.178c0.775-0.788,1.164-1.734,1.164-2.837c0-1.072-0.386-2.004-1.157-2.792
			c-0.78-0.802-1.718-1.203-2.812-1.203C248.891,37.662,247.947,38.063,247.167,38.865z M247.886,44.338v-5.342
			c0.332,0,0.827,0.001,1.487,0.002c0.66,0.004,1.028,0.007,1.102,0.012c0.424,0.029,0.773,0.121,1.053,0.273
			c0.476,0.262,0.713,0.688,0.713,1.275c0,0.449-0.126,0.773-0.376,0.973s-0.56,0.319-0.925,0.357
			c0.335,0.07,0.588,0.174,0.758,0.31c0.314,0.254,0.471,0.653,0.471,1.198v0.477c0,0.053,0.004,0.105,0.011,0.157
			s0.02,0.104,0.038,0.157l0.05,0.15h-1.334c-0.044-0.17-0.073-0.416-0.088-0.738c-0.016-0.324-0.045-0.541-0.089-0.654
			c-0.069-0.188-0.2-0.318-0.393-0.393c-0.104-0.043-0.263-0.072-0.477-0.085l-0.307-0.02h-0.295v1.89H247.886z M250.436,40.049
			c-0.191-0.074-0.462-0.111-0.811-0.111h-0.34v1.55h0.543c0.327,0,0.582-0.065,0.765-0.196s0.274-0.343,0.274-0.635
			C250.867,40.365,250.724,40.162,250.436,40.049z"/>
	</g>
</g>
</svg>
